<svg xmlns="http://www.w3.org/2000/svg" xmlns:ev="http://www.w3.org/2001/xml-events" xmlns:xlink="http://www.w3.org/1999/xlink" baseProfile="tiny" height="136.9203" version="1.2" width="138.8951"><defs/><g xmlns:inkscape="http://www.inkscape.org/namespaces/inkscape" id="layer1" inkscape:groupmode="layer" inkscape:label="Device"><path d="M 29.0322104422,74.7022636 L 23.0518967178,74.7022636 L 23.0518967178,80.8617128 L 29.0322104422,80.8617128 Z" data-channels="119" id="electrode000" style="fill: rgb(0,0,255)"/><path d="M 22.9829992178,74.6195866 L 29.1011093533,74.6195866 L 29.1011093533,68.5014773111 L 22.9829992178,68.5014773111 Z" data-channels="118" id="electrode001" style="fill: rgb(0,0,255)"/><path d="M 35.2329995533,80.8203757111 L 35.2329995533,74.7022636 L 29.2526852644,74.7022636 L 29.2526852644,80.8203757111 Z" data-channels="114" id="electrode002" style="fill: rgb(0,0,255)"/><path d="M 109.71134522,83.9621073556 L 109.71134522,81.2492631778 L 109.365134753,80.9030527111 L 103.939446398,80.9030527111 L 103.593235931,81.2492631778 L 103.593235931,83.9621073556 L 103.593235931,86.6749515333 L 103.939446398,87.021162 L 109.365134753,87.021162 L 109.71134522,86.6749515333 Z" data-channels="67" id="electrode003" style="fill: rgb(0,0,255)"/><path d="M 53.8353612422,80.8203757111 L 53.8353612422,74.7022636 L 47.8550469533,74.7022636 L 47.8550469533,80.8203757111 Z" data-channels="102" id="electrode004" style="fill: rgb(0,0,255)"/><path d="M 41.4337858422,74.7022636 L 35.4534715533,74.7022636 L 35.4534715533,80.8617128 L 41.4337858422,80.8617128 Z" data-channels="105" id="electrode005" style="fill: rgb(0,0,255)"/><path d="M 29.1837863533,74.6195866 L 35.3018956422,74.6195866 L 35.3018956422,68.5014773111 L 29.1837863533,68.5014773111 Z" data-channels="113" id="electrode006" style="fill: rgb(0,0,255)"/><path d="M 35.3845726422,74.6195866 L 41.5026847533,74.6195866 L 41.5026847533,68.5014773111 L 35.3845726422,68.5014773111 Z" data-channels="111" id="electrode007" style="fill: rgb(0,0,255)"/><path d="M 84.9081972422,84.0034444444 L 84.9081972422,81.2906002667 L 84.5619839533,80.9443898 L 79.1362955978,80.9443898 L 78.7900851311,81.2906002667 L 78.7900851311,84.0034444444 L 78.7900851311,86.7162886222 L 79.1362955978,87.0625019111 L 84.5619839533,87.0625019111 L 84.9081972422,86.7162886222 Z" data-channels="82" id="electrode008" style="fill: rgb(0,0,255)"/><path d="M 60.0361475311,74.7022636 L 54.0558332422,74.7022636 L 54.0558332422,80.8617128 L 60.0361475311,80.8617128 Z" data-channels="97" id="electrode009" style="fill: rgb(0,0,255)"/><path d="M 72.5066218422,68.5014773111 L 66.3885097311,68.5014773111 L 66.3885097311,74.6195866 L 72.5066218422,74.6195866 Z" data-channels="90" id="electrode010" style="fill: rgb(0,0,255)"/><path d="M 78.8589840422,80.8617128 L 84.8392983311,80.8617128 L 84.8392983311,74.7022636 L 78.8589840422,74.7022636 Z" data-channels="81" id="electrode011" style="fill: rgb(0,0,255)"/><path d="M 97.30976982,68.5014773111 L 91.1916605311,68.5014773111 L 91.1916605311,74.6195866 L 97.30976982,74.6195866 Z" data-channels="74" id="electrode012" style="fill: rgb(0,0,255)"/><path d="M 109.862921131,62.2180140222 L 115.84323542,62.2180140222 L 115.84323542,56.0585648222 L 109.862921131,56.0585648222 Z" data-channels="56" id="electrode013" style="fill: rgb(0,0,255)"/><path d="M 103.510558931,62.3006882 L 97.39244682,62.3006882 L 97.39244682,68.4188003111 L 103.510558931,68.4188003111 Z" data-channels="48" id="electrode014" style="fill: rgb(0,0,255)"/><path d="M 85.0597703311,56.0999019111 L 85.0597703311,62.2180140222 L 91.04008462,62.2180140222 L 91.04008462,56.0999019111 Z" data-channels="41" id="electrode015" style="fill: rgb(0,0,255)"/><path d="M 97.30976982,62.3006882 L 91.1916605311,62.3006882 L 91.1916605311,68.4188003111 L 97.30976982,68.4188003111 Z" data-channels="45" id="electrode016" style="fill: rgb(0,0,255)"/><path d="M 109.71134522,62.3006882 L 103.593235931,62.3006882 L 103.593235931,68.4188003111 L 109.71134522,68.4188003111 Z" data-channels="54" id="electrode017" style="fill: rgb(0,0,255)"/><path d="M 97.4613457311,62.2180140222 L 103.44166002,62.2180140222 L 103.44166002,56.0585648222 L 97.4613457311,56.0585648222 Z" data-channels="46" id="electrode018" style="fill: rgb(0,0,255)"/><path d="M 91.1089835311,62.3006882 L 84.9908742422,62.3006882 L 84.9908742422,68.4188003111 L 91.1089835311,68.4188003111 Z" data-channels="42" id="electrode019" style="fill: rgb(0,0,255)"/><path d="M 78.8589840422,62.2180140222 L 84.8392983311,62.2180140222 L 84.8392983311,56.0585648222 L 78.8589840422,56.0585648222 Z" data-channels="38" id="electrode020" style="fill: rgb(0,0,255)"/><path d="M 91.2605594422,62.2180140222 L 97.2408737311,62.2180140222 L 97.2408737311,56.0585648222 L 91.2605594422,56.0585648222 Z" data-channels="44" id="electrode021" style="fill: rgb(0,0,255)"/><path d="M 84.9081972422,62.3006882 L 78.7900851311,62.3006882 L 78.7900851311,68.4188003111 L 84.9081972422,68.4188003111 Z" data-channels="40" id="electrode022" style="fill: rgb(0,0,255)"/><path d="M 35.3018956422,37.5802172222 L 29.1837863533,37.5802172222 L 29.1837863533,43.6983265111 L 29.1837863533,49.8164386222 L 35.3018956422,49.8164386222 L 35.3018956422,43.6983265111 Z" data-channels="10" id="electrode023" style="fill: rgb(0,0,255)"/><path d="M 35.3845726422,43.6983265111 L 35.3845726422,45.2554142444 L 41.4337858422,45.2554142444 L 41.4337858422,3.9168324 L 37.5691814867,0.0 L 26.9165016378,0.0 L 23.0518967178,3.9168324 L 23.0518967178,45.2554142444 L 29.1011093533,45.2554142444 L 29.1011093533,43.6983265111 L 29.1011093533,37.5802172222 L 29.1011093533,37.4975402222 L 35.3845726422,37.4975402222 Z" data-channels="9" id="electrode024" style="fill: rgb(0,0,255)"/><path d="M 109.71134522,37.5802172222 L 103.593235931,37.5802172222 L 103.593235931,43.6983265111 L 103.593235931,49.8164386222 L 109.71134522,49.8164386222 L 109.71134522,43.6983265111 Z" data-channels="50" id="electrode025" style="fill: rgb(0,0,255)"/><path d="M 109.79402222,43.6983265111 L 109.79402222,45.2554142444 L 115.84323542,45.2554142444 L 115.84323542,3.9168324 L 111.978631064,0.0 L 101.325950087,0.0 L 97.4613457311,3.9168324 L 97.4613457311,45.2554142444 L 103.510558931,45.2554142444 L 103.510558931,43.6983265111 L 103.510558931,37.5802172222 L 103.510558931,37.4975402222 L 109.79402222,37.4975402222 Z" data-channels="49" id="electrode026" style="fill: rgb(0,0,255)"/><path d="M 119.053865976,56.0585648222 L 116.06370742,56.0585648222 L 116.06370742,62.2180140222 L 115.994811331,62.3006882 L 115.994811331,66.8892715778 L 119.053865976,66.8892715778 Z" data-channels="58" id="electrode027" style="fill: rgb(0,0,255)"/><path d="M 19.8412670089,66.8892715778 L 22.9003219356,66.8892715778 L 22.9003219356,62.3006882 L 22.8314244356,62.2180140222 L 22.8314244356,56.0585648222 L 19.8412670089,56.0585648222 Z" data-channels="2" id="electrode028" style="fill: rgb(0,0,255)"/><path d="M 60.1050464422,37.5802172222 L 53.9869371533,37.5802172222 L 53.9869371533,43.6983265111 L 53.9869371533,49.8164386222 L 60.1050464422,49.8164386222 L 60.1050464422,43.6983265111 Z" data-channels="20" id="electrode029" style="fill: rgb(0,0,255)"/><path d="M 60.1877234422,43.6983265111 L 60.1877234422,45.2554142444 L 66.2369366422,45.2554142444 L 66.2369366422,3.9168324 L 62.3723322867,0.0 L 51.7196513089,0.0 L 47.8550469533,3.9168324 L 47.8550469533,45.2554142444 L 53.9042601533,45.2554142444 L 53.9042601533,43.6983265111 L 53.9042601533,37.5802172222 L 53.9042601533,37.4975402222 L 60.1877234422,37.4975402222 Z" data-channels="26" id="electrode030" style="fill: rgb(0,0,255)"/><path d="M 84.9081972422,37.5802172222 L 78.7900851311,37.5802172222 L 78.7900851311,43.6983265111 L 78.7900851311,49.8164386222 L 84.9081972422,49.8164386222 L 84.9081972422,43.6983265111 Z" data-channels="36" id="electrode031" style="fill: rgb(0,0,255)"/><path d="M 84.9908742422,43.6983265111 L 84.9908742422,45.2554142444 L 91.04008462,45.2554142444 L 91.04008462,3.9168324 L 87.1754802644,0.0 L 76.5227992867,0.0 L 72.6581949311,3.9168324 L 72.6581949311,45.2554142444 L 78.7074081311,45.2554142444 L 78.7074081311,43.6983265111 L 78.7074081311,37.5802172222 L 78.7074081311,37.4975402222 L 84.9908742422,37.4975402222 Z" data-channels="34" id="electrode032" style="fill: rgb(0,0,255)"/><path d="M 78.7074081311,68.5014773111 L 72.5892988422,68.5014773111 L 72.5892988422,74.6195866 L 78.7074081311,74.6195866 Z" data-channels="86" id="electrode033" style="fill: rgb(0,0,255)"/><path d="M 91.2605594422,80.8617128 L 97.2408737311,80.8617128 L 97.2408737311,74.7022636 L 91.2605594422,74.7022636 Z" data-channels="75" id="electrode034" style="fill: rgb(0,0,255)"/><path d="M 84.9908742422,99.4227374 L 78.7074081311,99.4227374 L 78.7074081311,99.3400604 L 78.7074081311,93.2219511111 L 78.7074081311,91.6648633778 L 72.6581949311,91.6648633778 L 72.6581949311,133.003445222 L 76.5227992867,136.9202748 L 87.1754802644,136.9202748 L 91.04008462,133.003445222 L 91.04008462,91.6648633778 L 84.9908742422,91.6648633778 L 84.9908742422,93.2219511111 Z" data-channels="85" id="electrode035" style="fill: rgb(0,0,255)"/><path d="M 84.9081972422,93.2219511111 L 84.9081972422,87.103839 L 78.7900851311,87.103839 L 78.7900851311,93.2219511111 L 78.7900851311,99.3400604 L 84.9081972422,99.3400604 Z" data-channels="83" id="electrode036" style="fill: rgb(0,0,255)"/><path d="M 29.1837863533,86.6749515333 L 29.52999682,87.021162 L 34.9556851756,87.021162 L 35.3018956422,86.6749515333 L 35.3018956422,83.9621073556 L 35.3018956422,81.2492631778 L 34.9556851756,80.9030527111 L 29.52999682,80.9030527111 L 29.1837863533,81.2492631778 L 29.1837863533,83.9621073556 Z" data-channels="115" id="electrode037" style="fill: rgb(0,0,255)"/><path d="M 53.9869371533,86.7162886222 L 54.33314762,87.0625019111 L 59.7588359756,87.0625019111 L 60.1050464422,86.7162886222 L 60.1050464422,84.0034444444 L 60.1050464422,81.2906002667 L 59.7588359756,80.9443898 L 54.33314762,80.9443898 L 53.9869371533,81.2906002667 L 53.9869371533,84.0034444444 Z" data-channels="98" id="electrode038" style="fill: rgb(0,0,255)"/><path d="M 66.3885097311,74.7022636 L 66.3885097311,80.8203757111 L 72.4377229311,80.8203757111 L 72.4377229311,74.7022636 Z" data-channels="91" id="electrode039" style="fill: rgb(0,0,255)"/><path d="M 60.2566223533,74.7022636 L 60.2566223533,80.8203757111 L 66.3058327311,80.8203757111 L 66.3058327311,74.7022636 Z" data-channels="95" id="electrode040" style="fill: rgb(0,0,255)"/><path d="M 109.79402222,99.4227374 L 103.510558931,99.4227374 L 103.510558931,99.3400604 L 103.510558931,93.2219511111 L 103.510558931,91.6648633778 L 97.4613457311,91.6648633778 L 97.4613457311,133.003445222 L 101.325950087,136.9202748 L 111.978631064,136.9202748 L 115.84323542,133.003445222 L 115.84323542,91.6648633778 L 109.79402222,91.6648633778 L 109.79402222,93.2219511111 Z" data-channels="70" id="electrode041" style="fill: rgb(0,0,255)"/><path d="M 109.71134522,93.2219511111 L 109.71134522,87.103839 L 103.593235931,87.103839 L 103.593235931,93.2219511111 L 103.593235931,99.3400604 L 109.71134522,99.3400604 Z" data-channels="69" id="electrode042" style="fill: rgb(0,0,255)"/><path d="M 19.8412670089,80.8617128 L 22.8314244356,80.8617128 L 22.8314244356,74.7022636 L 22.9003219356,74.6195866 L 22.9003219356,70.0310060444 L 19.8412670089,70.0310060444 Z" data-channels="117" id="electrode043" style="fill: rgb(0,0,255)"/><path d="M 119.053865976,70.0310060444 L 115.994811331,70.0310060444 L 115.994811331,74.6195866 L 116.06370742,74.7022636 L 116.06370742,80.8617128 L 119.053865976,80.8617128 Z" data-channels="61" id="electrode044" style="fill: rgb(0,0,255)"/><path d="M 115.912134331,62.3006882 L 109.79402222,62.3006882 L 109.79402222,68.4188003111 L 115.912134331,68.4188003111 Z" data-channels="57" id="electrode045" style="fill: rgb(0,0,255)"/><path d="M 103.66213202,56.0999019111 L 103.66213202,62.2180140222 L 109.642449131,62.2180140222 L 109.642449131,56.0999019111 Z" data-channels="53" id="electrode046" style="fill: rgb(0,0,255)"/><path d="M 47.7861480422,68.4188003111 L 53.9042601533,68.4188003111 L 53.9042601533,62.3006882 L 47.7861480422,62.3006882 Z" data-channels="18" id="electrode047" style="fill: rgb(0,0,255)"/><path d="M 53.9869371533,68.4188003111 L 60.1050464422,68.4188003111 L 60.1050464422,62.3006882 L 53.9869371533,62.3006882 Z" data-channels="16" id="electrode048" style="fill: rgb(0,0,255)"/><path d="M 47.6345749533,56.0585648222 L 41.6542578422,56.0585648222 L 41.6542578422,62.2180140222 L 47.6345749533,62.2180140222 Z" data-channels="12" id="electrode049" style="fill: rgb(0,0,255)"/><path d="M 41.5853617533,68.4188003111 L 47.7034710422,68.4188003111 L 47.7034710422,62.3006882 L 41.5853617533,62.3006882 Z" data-channels="13" id="electrode050" style="fill: rgb(0,0,255)"/><path d="M 47.8550469533,56.0999019111 L 47.8550469533,62.2180140222 L 53.8353612422,62.2180140222 L 53.8353612422,56.0999019111 Z" data-channels="17" id="electrode051" style="fill: rgb(0,0,255)"/><path d="M 41.4337858422,56.0585648222 L 35.4534715533,56.0585648222 L 35.4534715533,62.2180140222 L 41.4337858422,62.2180140222 Z" data-channels="14" id="electrode052" style="fill: rgb(0,0,255)"/><path d="M 29.1837863533,68.4188003111 L 35.3018956422,68.4188003111 L 35.3018956422,62.3006882 L 29.1837863533,62.3006882 Z" data-channels="6" id="electrode053" style="fill: rgb(0,0,255)"/><path d="M 35.3845726422,68.4188003111 L 41.5026847533,68.4188003111 L 41.5026847533,62.3006882 L 35.3845726422,62.3006882 Z" data-channels="8" id="electrode054" style="fill: rgb(0,0,255)"/><path d="M 72.6581949311,80.8617128 L 78.6385120422,80.8617128 L 78.6385120422,74.7022636 L 72.6581949311,74.7022636 Z" data-channels="87" id="electrode055" style="fill: rgb(0,0,255)"/><path d="M 84.9081972422,68.5014773111 L 78.7900851311,68.5014773111 L 78.7900851311,74.6195866 L 84.9081972422,74.6195866 Z" data-channels="79" id="electrode056" style="fill: rgb(0,0,255)"/><path d="M 19.7585897267,66.8892715778 L 19.7585897267,56.0585648222 L 18.3818896889,54.6907127333 L 18.3818896889,25.5506897333 L 14.5172847689,21.6338601556 L 3.86460463778,21.6338601556 L 0.0,21.6338601556 L 0.0,66.8892715778 Z" data-channels="30" id="electrode057" style="fill: rgb(0,0,255)"/><path d="M 138.89513242,66.8892715778 L 138.89513242,21.6338601556 L 135.030528064,21.6338601556 L 124.377847087,21.6338601556 L 120.513242731,25.5506897333 L 120.513242731,54.6907127333 L 119.136542976,56.0585648222 L 119.136542976,66.8892715778 Z" data-channels="30" id="electrode058" style="fill: rgb(0,0,255)"/><path d="M 109.71134522,68.5014773111 L 103.593235931,68.5014773111 L 103.593235931,74.6195866 L 109.71134522,74.6195866 Z" data-channels="65" id="electrode059" style="fill: rgb(0,0,255)"/><path d="M 97.4613457311,80.8617128 L 103.44166002,80.8617128 L 103.44166002,74.7022636 L 97.4613457311,74.7022636 Z" data-channels="73" id="electrode060" style="fill: rgb(0,0,255)"/><path d="M 109.862921131,80.8617128 L 115.84323542,80.8617128 L 115.84323542,74.7022636 L 109.862921131,74.7022636 Z" data-channels="63" id="electrode061" style="fill: rgb(0,0,255)"/><path d="M 103.510558931,68.5014773111 L 97.39244682,68.5014773111 L 97.39244682,74.6195866 L 103.510558931,74.6195866 Z" data-channels="71" id="electrode062" style="fill: rgb(0,0,255)"/><path d="M 109.642449131,80.8203757111 L 109.642449131,74.7022636 L 103.66213202,74.7022636 L 103.66213202,80.8203757111 Z" data-channels="66" id="electrode063" style="fill: rgb(0,0,255)"/><path d="M 115.912134331,68.5014773111 L 109.79402222,68.5014773111 L 109.79402222,74.6195866 L 115.912134331,74.6195866 Z" data-channels="62" id="electrode064" style="fill: rgb(0,0,255)"/><path d="M 53.9869371533,74.6195866 L 60.1050464422,74.6195866 L 60.1050464422,68.5014773111 L 53.9869371533,68.5014773111 Z" data-channels="103" id="electrode065" style="fill: rgb(0,0,255)"/><path d="M 47.7861480422,74.6195866 L 53.9042601533,74.6195866 L 53.9042601533,68.5014773111 L 47.7861480422,68.5014773111 Z" data-channels="101" id="electrode066" style="fill: rgb(0,0,255)"/><path d="M 41.5853617533,74.6195866 L 47.7034710422,74.6195866 L 47.7034710422,68.5014773111 L 41.5853617533,68.5014773111 Z" data-channels="106" id="electrode067" style="fill: rgb(0,0,255)"/><path d="M 47.6345749533,74.7022636 L 41.6542578422,74.7022636 L 41.6542578422,80.8617128 L 47.6345749533,80.8617128 Z" data-channels="107" id="electrode068" style="fill: rgb(0,0,255)"/><path d="M 72.6581949311,62.2180140222 L 78.6385120422,62.2180140222 L 78.6385120422,56.0585648222 L 72.6581949311,56.0585648222 Z" data-channels="32" id="electrode069" style="fill: rgb(0,0,255)"/><path d="M 78.7074081311,62.3006882 L 72.5892988422,62.3006882 L 72.5892988422,68.4188003111 L 78.7074081311,68.4188003111 Z" data-channels="33" id="electrode070" style="fill: rgb(0,0,255)"/><path d="M 72.5066218422,62.3006882 L 66.3885097311,62.3006882 L 66.3885097311,68.4188003111 L 72.5066218422,68.4188003111 Z" data-channels="29" id="electrode071" style="fill: rgb(0,0,255)"/><path d="M 66.3058327311,62.3006882 L 60.1877234422,62.3006882 L 60.1877234422,68.4188003111 L 66.3058327311,68.4188003111 Z" data-channels="25" id="electrode072" style="fill: rgb(0,0,255)"/><path d="M 119.136542976,70.0310060444 L 119.136542976,80.8617128 L 120.513242731,82.2295648889 L 120.513242731,111.369587889 L 124.377847087,115.286417467 L 135.030528064,115.286417467 L 138.89513242,115.286417467 L 138.89513242,70.0310060444 Z" data-channels="89" id="electrode073" style="fill: rgb(0,0,255)"/><path d="M 0.0,70.0310060444 L 0.0,115.286417467 L 3.86460463778,115.286417467 L 14.5172847689,115.286417467 L 18.3818896889,111.369587889 L 18.3818896889,82.2295648889 L 19.7585897267,80.8617128 L 19.7585897267,70.0310060444 Z" data-channels="89" id="electrode074" style="fill: rgb(0,0,255)"/><path d="M 35.3018956422,93.2219511111 L 35.3018956422,87.103839 L 29.1837863533,87.103839 L 29.1837863533,93.2219511111 L 29.1837863533,99.3400604 L 35.3018956422,99.3400604 Z" data-channels="109" id="electrode075" style="fill: rgb(0,0,255)"/><path d="M 35.3845726422,99.4227374 L 29.1011093533,99.4227374 L 29.1011093533,99.3400604 L 29.1011093533,93.2219511111 L 29.1011093533,91.6648633778 L 23.0518967178,91.6648633778 L 23.0518967178,133.003445222 L 26.9165016378,136.9202748 L 37.5691814867,136.9202748 L 41.4337858422,133.003445222 L 41.4337858422,91.6648633778 L 35.3845726422,91.6648633778 L 35.3845726422,93.2219511111 Z" data-channels="110" id="electrode076" style="fill: rgb(0,0,255)"/><path d="M 60.1050464422,93.2219511111 L 60.1050464422,87.103839 L 53.9869371533,87.103839 L 53.9869371533,93.2219511111 L 53.9869371533,99.3400604 L 60.1050464422,99.3400604 Z" data-channels="99" id="electrode077" style="fill: rgb(0,0,255)"/><path d="M 60.1877234422,99.4227374 L 53.9042601533,99.4227374 L 53.9042601533,99.3400604 L 53.9042601533,93.2219511111 L 53.9042601533,91.6648633778 L 47.8550469533,91.6648633778 L 47.8550469533,133.003445222 L 51.7196513089,136.9202748 L 62.3723322867,136.9202748 L 66.2369366422,133.003445222 L 66.2369366422,91.6648633778 L 60.1877234422,91.6648633778 L 60.1877234422,93.2219511111 Z" data-channels="93" id="electrode078" style="fill: rgb(0,0,255)"/><path d="M 66.3058327311,68.5014773111 L 60.1877234422,68.5014773111 L 60.1877234422,74.6195866 L 66.3058327311,74.6195866 Z" data-channels="94" id="electrode079" style="fill: rgb(0,0,255)"/><path d="M 91.1089835311,68.5014773111 L 84.9908742422,68.5014773111 L 84.9908742422,74.6195866 L 91.1089835311,74.6195866 Z" data-channels="77" id="electrode080" style="fill: rgb(0,0,255)"/><path d="M 91.04008462,80.8203757111 L 91.04008462,74.7022636 L 85.0597703311,74.7022636 L 85.0597703311,80.8203757111 Z" data-channels="78" id="electrode081" style="fill: rgb(0,0,255)"/><path d="M 72.4377229311,62.2180140222 L 72.4377229311,56.0999019111 L 66.3885097311,56.0999019111 L 66.3885097311,62.2180140222 Z" data-channels="28" id="electrode082" style="fill: rgb(0,0,255)"/><path d="M 66.3058327311,62.2180140222 L 66.3058327311,56.0999019111 L 60.2566223533,56.0999019111 L 60.2566223533,62.2180140222 Z" data-channels="24" id="electrode083" style="fill: rgb(0,0,255)"/><path d="M 60.0361475311,56.0585648222 L 54.0558332422,56.0585648222 L 54.0558332422,62.2180140222 L 60.0361475311,62.2180140222 Z" data-channels="22" id="electrode084" style="fill: rgb(0,0,255)"/><path d="M 84.9081972422,50.2039861778 L 84.5619839533,49.8577757111 L 79.1362955978,49.8577757111 L 78.7900851311,50.2039861778 L 78.7900851311,52.9168303556 L 78.7900851311,55.6296745333 L 79.1362955978,55.9758878222 L 84.5619839533,55.9758878222 L 84.9081972422,55.6296745333 L 84.9081972422,52.9168303556 Z" data-channels="37" id="electrode085" style="fill: rgb(0,0,255)"/><path d="M 109.71134522,50.2453260889 L 109.365134753,49.8991156222 L 103.939446398,49.8991156222 L 103.593235931,50.2453260889 L 103.593235931,52.9581702667 L 103.593235931,55.6710144444 L 103.939446398,56.0172249111 L 109.365134753,56.0172249111 L 109.71134522,55.6710144444 L 109.71134522,52.9581702667 Z" data-channels="52" id="electrode086" style="fill: rgb(0,0,255)"/><path d="M 29.2526852644,56.0999019111 L 29.2526852644,62.2180140222 L 35.2329995533,62.2180140222 L 35.2329995533,56.0999019111 Z" data-channels="5" id="electrode087" style="fill: rgb(0,0,255)"/><path d="M 22.9829992178,68.4188003111 L 29.1011093533,68.4188003111 L 29.1011093533,62.3006882 L 22.9829992178,62.3006882 Z" data-channels="1" id="electrode088" style="fill: rgb(0,0,255)"/><path d="M 29.0322104422,56.0585648222 L 23.0518967178,56.0585648222 L 23.0518967178,62.2180140222 L 29.0322104422,62.2180140222 Z" data-channels="0" id="electrode089" style="fill: rgb(0,0,255)"/><path d="M 29.1837863533,52.9581702667 L 29.1837863533,55.6710144444 L 29.52999682,56.0172249111 L 34.9556851756,56.0172249111 L 35.3018956422,55.6710144444 L 35.3018956422,52.9581702667 L 35.3018956422,50.2453260889 L 34.9556851756,49.8991156222 L 29.52999682,49.8991156222 L 29.1837863533,50.2453260889 Z" data-channels="4" id="electrode090" style="fill: rgb(0,0,255)"/><path d="M 53.9869371533,52.9168303556 L 53.9869371533,55.6296745333 L 54.33314762,55.9758878222 L 59.7588359756,55.9758878222 L 60.1050464422,55.6296745333 L 60.1050464422,52.9168303556 L 60.1050464422,50.2039861778 L 59.7588359756,49.8577757111 L 54.33314762,49.8577757111 L 53.9869371533,50.2039861778 Z" data-channels="21" id="electrode091" style="fill: rgb(0,0,255)"/></g><g xmlns:inkscape="http://www.inkscape.org/namespaces/inkscape" id="layer2" inkscape:groupmode="layer" inkscape:label="Connections"><line id="line0" style="stroke:#000000; stroke-width:0.1;" x1="26.0421" x2="26.0421" y1="77.782" y2="71.5605"/><line id="line1" style="stroke:#000000; stroke-width:0.1;" x1="26.0421" x2="32.2428" y1="77.782" y2="77.7613"/><line id="line2" style="stroke:#000000; stroke-width:0.1;" x1="26.0421" x2="21.3708" y1="77.782" y2="75.4464"/><line id="line3" style="stroke:#000000; stroke-width:0.1;" x1="26.0421" x2="32.2428" y1="71.5605" y2="71.5605"/><line id="line4" style="stroke:#000000; stroke-width:0.1;" x1="26.0421" x2="21.3708" y1="71.5605" y2="75.4464"/><line id="line5" style="stroke:#000000; stroke-width:0.1;" x1="26.0421" x2="26.0421" y1="71.5605" y2="65.3597"/><line id="line6" style="stroke:#000000; stroke-width:0.1;" x1="32.2428" x2="38.4436" y1="77.7613" y2="77.782"/><line id="line7" style="stroke:#000000; stroke-width:0.1;" x1="32.2428" x2="32.2428" y1="77.7613" y2="71.5605"/><line id="line8" style="stroke:#000000; stroke-width:0.1;" x1="32.2428" x2="32.2428" y1="77.7613" y2="83.9621"/><line id="line9" style="stroke:#000000; stroke-width:0.1;" x1="106.6523" x2="106.6523" y1="83.9621" y2="93.2219"/><line id="line10" style="stroke:#000000; stroke-width:0.1;" x1="106.6523" x2="106.6523" y1="83.9621" y2="77.7613"/><line id="line11" style="stroke:#000000; stroke-width:0.1;" x1="50.8452" x2="57.046" y1="77.7613" y2="77.782"/><line id="line12" style="stroke:#000000; stroke-width:0.1;" x1="50.8452" x2="50.8452" y1="77.7613" y2="71.5605"/><line id="line13" style="stroke:#000000; stroke-width:0.1;" x1="50.8452" x2="44.6444" y1="77.7613" y2="77.782"/><line id="line14" style="stroke:#000000; stroke-width:0.1;" x1="38.4436" x2="38.4436" y1="77.782" y2="71.5605"/><line id="line15" style="stroke:#000000; stroke-width:0.1;" x1="38.4436" x2="44.6444" y1="77.782" y2="77.782"/><line id="line16" style="stroke:#000000; stroke-width:0.1;" x1="32.2428" x2="38.4436" y1="71.5605" y2="71.5605"/><line id="line17" style="stroke:#000000; stroke-width:0.1;" x1="32.2428" x2="32.2428" y1="71.5605" y2="65.3597"/><line id="line18" style="stroke:#000000; stroke-width:0.1;" x1="38.4436" x2="38.4436" y1="71.5605" y2="65.3597"/><line id="line19" style="stroke:#000000; stroke-width:0.1;" x1="38.4436" x2="44.6444" y1="71.5605" y2="71.5605"/><line id="line20" style="stroke:#000000; stroke-width:0.1;" x1="81.8491" x2="81.8491" y1="84.0034" y2="77.782"/><line id="line21" style="stroke:#000000; stroke-width:0.1;" x1="81.8491" x2="81.8491" y1="84.0034" y2="93.2219"/><line id="line22" style="stroke:#000000; stroke-width:0.1;" x1="57.046" x2="57.046" y1="77.782" y2="84.0034"/><line id="line23" style="stroke:#000000; stroke-width:0.1;" x1="57.046" x2="63.2812" y1="77.782" y2="77.7613"/><line id="line24" style="stroke:#000000; stroke-width:0.1;" x1="57.046" x2="57.046" y1="77.782" y2="71.5605"/><line id="line25" style="stroke:#000000; stroke-width:0.1;" x1="69.4476" x2="75.6484" y1="71.5605" y2="71.5605"/><line id="line26" style="stroke:#000000; stroke-width:0.1;" x1="69.4476" x2="69.4131" y1="71.5605" y2="77.7613"/><line id="line27" style="stroke:#000000; stroke-width:0.1;" x1="69.4476" x2="69.4476" y1="71.5605" y2="65.3597"/><line id="line28" style="stroke:#000000; stroke-width:0.1;" x1="69.4476" x2="63.2468" y1="71.5605" y2="71.5605"/><line id="line29" style="stroke:#000000; stroke-width:0.1;" x1="81.8491" x2="75.6484" y1="77.782" y2="77.782"/><line id="line30" style="stroke:#000000; stroke-width:0.1;" x1="81.8491" x2="81.8491" y1="77.782" y2="71.5605"/><line id="line31" style="stroke:#000000; stroke-width:0.1;" x1="81.8491" x2="88.0499" y1="77.782" y2="77.7613"/><line id="line32" style="stroke:#000000; stroke-width:0.1;" x1="94.2507" x2="94.2507" y1="71.5605" y2="65.3597"/><line id="line33" style="stroke:#000000; stroke-width:0.1;" x1="94.2507" x2="94.2507" y1="71.5605" y2="77.782"/><line id="line34" style="stroke:#000000; stroke-width:0.1;" x1="94.2507" x2="100.4515" y1="71.5605" y2="71.5605"/><line id="line35" style="stroke:#000000; stroke-width:0.1;" x1="94.2507" x2="88.0499" y1="71.5605" y2="71.5605"/><line id="line36" style="stroke:#000000; stroke-width:0.1;" x1="112.8531" x2="117.5243" y1="59.1383" y2="61.4739"/><line id="line37" style="stroke:#000000; stroke-width:0.1;" x1="112.8531" x2="112.8531" y1="59.1383" y2="65.3597"/><line id="line38" style="stroke:#000000; stroke-width:0.1;" x1="112.8531" x2="106.6523" y1="59.1383" y2="59.159"/><line id="line39" style="stroke:#000000; stroke-width:0.1;" x1="100.4515" x2="94.2507" y1="65.3597" y2="65.3597"/><line id="line40" style="stroke:#000000; stroke-width:0.1;" x1="100.4515" x2="106.6523" y1="65.3597" y2="65.3597"/><line id="line41" style="stroke:#000000; stroke-width:0.1;" x1="100.4515" x2="100.4515" y1="65.3597" y2="59.1383"/><line id="line42" style="stroke:#000000; stroke-width:0.1;" x1="100.4515" x2="100.4515" y1="65.3597" y2="71.5605"/><line id="line43" style="stroke:#000000; stroke-width:0.1;" x1="88.0499" x2="88.0499" y1="59.159" y2="65.3597"/><line id="line44" style="stroke:#000000; stroke-width:0.1;" x1="88.0499" x2="81.8491" y1="59.159" y2="59.1383"/><line id="line45" style="stroke:#000000; stroke-width:0.1;" x1="88.0499" x2="94.2507" y1="59.159" y2="59.1383"/><line id="line46" style="stroke:#000000; stroke-width:0.1;" x1="94.2507" x2="88.0499" y1="65.3597" y2="65.3597"/><line id="line47" style="stroke:#000000; stroke-width:0.1;" x1="94.2507" x2="94.2507" y1="65.3597" y2="59.1383"/><line id="line48" style="stroke:#000000; stroke-width:0.1;" x1="106.6523" x2="112.8531" y1="65.3597" y2="65.3597"/><line id="line49" style="stroke:#000000; stroke-width:0.1;" x1="106.6523" x2="106.6523" y1="65.3597" y2="59.159"/><line id="line50" style="stroke:#000000; stroke-width:0.1;" x1="106.6523" x2="106.6523" y1="65.3597" y2="71.5605"/><line id="line51" style="stroke:#000000; stroke-width:0.1;" x1="100.4515" x2="94.2507" y1="59.1383" y2="59.1383"/><line id="line52" style="stroke:#000000; stroke-width:0.1;" x1="100.4515" x2="106.6523" y1="59.1383" y2="59.159"/><line id="line53" style="stroke:#000000; stroke-width:0.1;" x1="88.0499" x2="81.8491" y1="65.3597" y2="65.3597"/><line id="line54" style="stroke:#000000; stroke-width:0.1;" x1="88.0499" x2="88.0499" y1="65.3597" y2="71.5605"/><line id="line55" style="stroke:#000000; stroke-width:0.1;" x1="81.8491" x2="81.8491" y1="59.1383" y2="65.3597"/><line id="line56" style="stroke:#000000; stroke-width:0.1;" x1="81.8491" x2="75.6484" y1="59.1383" y2="59.1383"/><line id="line57" style="stroke:#000000; stroke-width:0.1;" x1="81.8491" x2="81.8491" y1="59.1383" y2="52.9168"/><line id="line58" style="stroke:#000000; stroke-width:0.1;" x1="81.8491" x2="81.8491" y1="65.3597" y2="71.5605"/><line id="line59" style="stroke:#000000; stroke-width:0.1;" x1="81.8491" x2="75.6484" y1="65.3597" y2="65.3597"/><line id="line60" style="stroke:#000000; stroke-width:0.1;" x1="32.2428" x2="32.2428" y1="43.6983" y2="22.6277"/><line id="line61" style="stroke:#000000; stroke-width:0.1;" x1="32.2428" x2="32.2428" y1="43.6983" y2="52.9582"/><line id="line62" style="stroke:#000000; stroke-width:0.1;" x1="106.6523" x2="106.6523" y1="43.6983" y2="22.6277"/><line id="line63" style="stroke:#000000; stroke-width:0.1;" x1="106.6523" x2="106.6523" y1="43.6983" y2="52.9582"/><line id="line64" style="stroke:#000000; stroke-width:0.1;" x1="117.5243" x2="112.8531" y1="61.4739" y2="65.3597"/><line id="line65" style="stroke:#000000; stroke-width:0.1;" x1="117.5243" x2="129.0158" y1="61.4739" y2="44.2616"/><line id="line66" style="stroke:#000000; stroke-width:0.1;" x1="21.3708" x2="9.8793" y1="61.4739" y2="44.2616"/><line id="line67" style="stroke:#000000; stroke-width:0.1;" x1="21.3708" x2="26.0421" y1="61.4739" y2="65.3597"/><line id="line68" style="stroke:#000000; stroke-width:0.1;" x1="21.3708" x2="26.0421" y1="61.4739" y2="59.1383"/><line id="line69" style="stroke:#000000; stroke-width:0.1;" x1="57.046" x2="57.046" y1="43.6983" y2="22.6277"/><line id="line70" style="stroke:#000000; stroke-width:0.1;" x1="57.046" x2="57.046" y1="43.6983" y2="52.9168"/><line id="line71" style="stroke:#000000; stroke-width:0.1;" x1="81.8491" x2="81.8491" y1="43.6983" y2="22.6277"/><line id="line72" style="stroke:#000000; stroke-width:0.1;" x1="81.8491" x2="81.8491" y1="43.6983" y2="52.9168"/><line id="line73" style="stroke:#000000; stroke-width:0.1;" x1="75.6484" x2="75.6484" y1="71.5605" y2="77.782"/><line id="line74" style="stroke:#000000; stroke-width:0.1;" x1="75.6484" x2="81.8491" y1="71.5605" y2="71.5605"/><line id="line75" style="stroke:#000000; stroke-width:0.1;" x1="75.6484" x2="75.6484" y1="71.5605" y2="65.3597"/><line id="line76" style="stroke:#000000; stroke-width:0.1;" x1="94.2507" x2="100.4515" y1="77.782" y2="77.782"/><line id="line77" style="stroke:#000000; stroke-width:0.1;" x1="94.2507" x2="88.0499" y1="77.782" y2="77.7613"/><line id="line78" style="stroke:#000000; stroke-width:0.1;" x1="81.8491" x2="81.8491" y1="114.2926" y2="93.2219"/><line id="line79" style="stroke:#000000; stroke-width:0.1;" x1="32.2428" x2="32.2428" y1="83.9621" y2="93.2219"/><line id="line80" style="stroke:#000000; stroke-width:0.1;" x1="57.046" x2="57.046" y1="84.0034" y2="93.2219"/><line id="line81" style="stroke:#000000; stroke-width:0.1;" x1="69.4131" x2="63.2812" y1="77.7613" y2="77.7613"/><line id="line82" style="stroke:#000000; stroke-width:0.1;" x1="69.4131" x2="75.6484" y1="77.7613" y2="77.782"/><line id="line83" style="stroke:#000000; stroke-width:0.1;" x1="63.2812" x2="63.2468" y1="77.7613" y2="71.5605"/><line id="line84" style="stroke:#000000; stroke-width:0.1;" x1="106.6523" x2="106.6523" y1="114.2926" y2="93.2219"/><line id="line85" style="stroke:#000000; stroke-width:0.1;" x1="21.3708" x2="9.8793" y1="75.4464" y2="92.6587"/><line id="line86" style="stroke:#000000; stroke-width:0.1;" x1="117.5243" x2="112.8531" y1="75.4464" y2="77.782"/><line id="line87" style="stroke:#000000; stroke-width:0.1;" x1="117.5243" x2="112.8531" y1="75.4464" y2="71.5605"/><line id="line88" style="stroke:#000000; stroke-width:0.1;" x1="117.5243" x2="129.0158" y1="75.4464" y2="92.6587"/><line id="line89" style="stroke:#000000; stroke-width:0.1;" x1="112.8531" x2="112.8531" y1="65.3597" y2="71.5605"/><line id="line90" style="stroke:#000000; stroke-width:0.1;" x1="106.6523" x2="106.6523" y1="59.159" y2="52.9582"/><line id="line91" style="stroke:#000000; stroke-width:0.1;" x1="50.8452" x2="57.046" y1="65.3597" y2="65.3597"/><line id="line92" style="stroke:#000000; stroke-width:0.1;" x1="50.8452" x2="44.6444" y1="65.3597" y2="65.3597"/><line id="line93" style="stroke:#000000; stroke-width:0.1;" x1="50.8452" x2="50.8452" y1="65.3597" y2="59.159"/><line id="line94" style="stroke:#000000; stroke-width:0.1;" x1="50.8452" x2="50.8452" y1="65.3597" y2="71.5605"/><line id="line95" style="stroke:#000000; stroke-width:0.1;" x1="57.046" x2="57.046" y1="65.3597" y2="71.5605"/><line id="line96" style="stroke:#000000; stroke-width:0.1;" x1="57.046" x2="63.2468" y1="65.3597" y2="65.3597"/><line id="line97" style="stroke:#000000; stroke-width:0.1;" x1="57.046" x2="57.046" y1="65.3597" y2="59.1383"/><line id="line98" style="stroke:#000000; stroke-width:0.1;" x1="44.6444" x2="44.6444" y1="59.1383" y2="65.3597"/><line id="line99" style="stroke:#000000; stroke-width:0.1;" x1="44.6444" x2="50.8452" y1="59.1383" y2="59.159"/><line id="line100" style="stroke:#000000; stroke-width:0.1;" x1="44.6444" x2="38.4436" y1="59.1383" y2="59.1383"/><line id="line101" style="stroke:#000000; stroke-width:0.1;" x1="44.6444" x2="38.4436" y1="65.3597" y2="65.3597"/><line id="line102" style="stroke:#000000; stroke-width:0.1;" x1="44.6444" x2="44.6444" y1="65.3597" y2="71.5605"/><line id="line103" style="stroke:#000000; stroke-width:0.1;" x1="50.8452" x2="57.046" y1="59.159" y2="59.1383"/><line id="line104" style="stroke:#000000; stroke-width:0.1;" x1="38.4436" x2="38.4436" y1="59.1383" y2="65.3597"/><line id="line105" style="stroke:#000000; stroke-width:0.1;" x1="38.4436" x2="32.2428" y1="59.1383" y2="59.159"/><line id="line106" style="stroke:#000000; stroke-width:0.1;" x1="32.2428" x2="38.4436" y1="65.3597" y2="65.3597"/><line id="line107" style="stroke:#000000; stroke-width:0.1;" x1="32.2428" x2="32.2428" y1="65.3597" y2="59.159"/><line id="line108" style="stroke:#000000; stroke-width:0.1;" x1="32.2428" x2="26.0421" y1="65.3597" y2="65.3597"/><line id="line109" style="stroke:#000000; stroke-width:0.1;" x1="81.8491" x2="88.0499" y1="71.5605" y2="71.5605"/><line id="line110" style="stroke:#000000; stroke-width:0.1;" x1="106.6523" x2="100.4515" y1="71.5605" y2="71.5605"/><line id="line111" style="stroke:#000000; stroke-width:0.1;" x1="106.6523" x2="106.6523" y1="71.5605" y2="77.7613"/><line id="line112" style="stroke:#000000; stroke-width:0.1;" x1="106.6523" x2="112.8531" y1="71.5605" y2="71.5605"/><line id="line113" style="stroke:#000000; stroke-width:0.1;" x1="100.4515" x2="100.4515" y1="77.782" y2="71.5605"/><line id="line114" style="stroke:#000000; stroke-width:0.1;" x1="100.4515" x2="106.6523" y1="77.782" y2="77.7613"/><line id="line115" style="stroke:#000000; stroke-width:0.1;" x1="112.8531" x2="106.6523" y1="77.782" y2="77.7613"/><line id="line116" style="stroke:#000000; stroke-width:0.1;" x1="112.8531" x2="112.8531" y1="77.782" y2="71.5605"/><line id="line117" style="stroke:#000000; stroke-width:0.1;" x1="57.046" x2="50.8452" y1="71.5605" y2="71.5605"/><line id="line118" style="stroke:#000000; stroke-width:0.1;" x1="57.046" x2="63.2468" y1="71.5605" y2="71.5605"/><line id="line119" style="stroke:#000000; stroke-width:0.1;" x1="50.8452" x2="44.6444" y1="71.5605" y2="71.5605"/><line id="line120" style="stroke:#000000; stroke-width:0.1;" x1="44.6444" x2="44.6444" y1="71.5605" y2="77.782"/><line id="line121" style="stroke:#000000; stroke-width:0.1;" x1="75.6484" x2="75.6484" y1="59.1383" y2="65.3597"/><line id="line122" style="stroke:#000000; stroke-width:0.1;" x1="75.6484" x2="69.4131" y1="59.1383" y2="59.159"/><line id="line123" style="stroke:#000000; stroke-width:0.1;" x1="75.6484" x2="69.4476" y1="65.3597" y2="65.3597"/><line id="line124" style="stroke:#000000; stroke-width:0.1;" x1="69.4476" x2="63.2468" y1="65.3597" y2="65.3597"/><line id="line125" style="stroke:#000000; stroke-width:0.1;" x1="69.4476" x2="69.4131" y1="65.3597" y2="59.159"/><line id="line126" style="stroke:#000000; stroke-width:0.1;" x1="63.2468" x2="63.2468" y1="65.3597" y2="71.5605"/><line id="line127" style="stroke:#000000; stroke-width:0.1;" x1="63.2468" x2="63.2812" y1="65.3597" y2="59.159"/><line id="line128" style="stroke:#000000; stroke-width:0.1;" x1="32.2428" x2="32.2428" y1="93.2219" y2="114.2926"/><line id="line129" style="stroke:#000000; stroke-width:0.1;" x1="57.046" x2="57.046" y1="93.2219" y2="114.2926"/><line id="line130" style="stroke:#000000; stroke-width:0.1;" x1="88.0499" x2="88.0499" y1="71.5605" y2="77.7613"/><line id="line131" style="stroke:#000000; stroke-width:0.1;" x1="69.4131" x2="63.2812" y1="59.159" y2="59.159"/><line id="line132" style="stroke:#000000; stroke-width:0.1;" x1="63.2812" x2="57.046" y1="59.159" y2="59.1383"/><line id="line133" style="stroke:#000000; stroke-width:0.1;" x1="57.046" x2="57.046" y1="59.1383" y2="52.9168"/><line id="line134" style="stroke:#000000; stroke-width:0.1;" x1="32.2428" x2="26.0421" y1="59.159" y2="59.1383"/><line id="line135" style="stroke:#000000; stroke-width:0.1;" x1="32.2428" x2="32.2428" y1="59.159" y2="52.9582"/><line id="line136" style="stroke:#000000; stroke-width:0.1;" x1="26.0421" x2="26.0421" y1="65.3597" y2="59.1383"/></g></svg>